<?xml version="1.0" standalone="no"?>
<!DOCTYPE svg PUBLIC "-//W3C//DTD SVG 20010904//EN"
 "http://www.w3.org/TR/2001/REC-SVG-20010904/DTD/svg10.dtd">
<svg version="1.0" xmlns="http://www.w3.org/2000/svg"
 width="512.000000pt" height="512.000000pt" viewBox="0 0 512.000000 512.000000"
 preserveAspectRatio="xMidYMid meet">
<metadata>
Created by potrace 1.11, written by Peter Selinger 2001-2013
</metadata>
<g transform="translate(0.000000,512.000000) scale(0.100000,-0.100000)"
fill="#000000" stroke="none">
<path d="M805 4948 c-32 -11 -91 -52 -113 -78 -73 -85 -63 -237 20 -316 64
-61 101 -72 263 -73 76 -1 142 -4 144 -7 3 -3 6 -146 7 -317 0 -172 4 -332 8
-357 24 -151 86 -332 153 -444 62 -103 133 -184 322 -366 380 -364 369 -352
380 -397 19 -71 -2 -104 -169 -263 -81 -77 -160 -152 -176 -166 -223 -203
-321 -326 -410 -520 -30 -63 -69 -172 -66 -181 1 -2 -5 -20 -12 -41 -13 -35
-18 -66 -33 -172 -2 -19 -5 -163 -6 -320 l-3 -285 -149 -5 c-169 -7 -197 -15
-257 -77 -49 -50 -71 -113 -64 -180 8 -71 26 -111 72 -154 81 -75 -75 -69
1857 -67 1644 3 1734 4 1768 21 111 55 160 171 124 291 -17 59 -45 93 -106
132 -43 28 -49 29 -204 34 l-160 5 -1 290 c0 160 -4 315 -8 345 -17 133 -84
335 -153 459 -90 162 -126 202 -497 555 -179 170 -200 196 -209 252 -11 69 22
106 393 454 270 252 347 357 416 567 59 182 67 257 68 635 l1 278 130 1 c145
1 164 3 210 25 105 50 155 169 121 288 -17 59 -60 107 -126 142 l-44 24 -1731
-1 c-1182 0 -1739 -4 -1760 -11z"/>
</g>
</svg>
