<?xml version="1.0" encoding="utf-8"?>
<svg version="1.1" x="0px" y="0px" viewBox="0 0 64 64" style="enable-background:new 0 0 64 64;" xmlns="http://www.w3.org/2000/svg">
  <defs>
    <pattern id="pattern-0" x="0" y="0" width="25" height="25" patternUnits="userSpaceOnUse" viewBox="0 0 100 100">
      <rect x="0" y="0" width="50" height="100" style="fill: black;"/>
    </pattern>
  </defs>
  <style type="text/css">
    .circle{fill:#34495E;}
    .shadow{fill:#222222; opacity:0.52;}
    .hourglass{fill:#F0F0F0;}
    .sand{fill:#4F5D73;}
    .frame{fill:#5e4934;}
</style>
  <g id="Layer_1">
    <circle class="circle" cx="32" cy="32" r="32" style="paint-order: fill;"/>
    <g transform="matrix(1.125, 0, 0, 1.2, -4, -6.400001)">
      <path class="hourglass" d="M 40.988 36.6 C 40.988 36.6 37.995 33.8 37.097 32.9 C 36.199 32 37.102 31.1 37.102 31.1 C 37.102 31.1 38.405 29.8 41.312 27.1 C 44.119 24.4 44.029 20.4 44.029 20.4 L 44.042 15.3 L 32.032 15.13 L 20.042 15.3 L 20.029 20.4 C 20.029 20.4 19.919 24.3 22.712 27.1 C 25.505 29.8 26.902 31.1 26.902 31.1 C 26.902 31.1 27.799 32 26.897 32.9 C 25.995 33.8 22.988 36.6 22.988 36.6 C 22.988 36.6 19.98 39.4 19.969 44 C 19.957 48.5 19.956 49.1 19.956 49.1 L 31.956 49.1 L 43.956 49.1 C 43.956 49.1 43.957 48.6 43.969 44 C 43.98 39.5 40.988 36.6 40.988 36.6 Z" style="fill: rgb(250, 250, 250);"/>
      <path class="frame" d="M 48 14 C 48 15.1 47.1 16 46 16 L 18 16 C 16.9 16 16 15.1 16 14 L 16 14 C 16 12.9 16.9 12 18 12 L 46 12 C 47.1 12 48 12.9 48 14 L 48 14 Z" style="fill: rgb(250, 250, 250);"/>
      <path class="frame" d="M 48 50 C 48 51.1 47.1 52 46 52 L 18 52 C 16.9 52 16 51.1 16 50 L 16 50 C 16 48.9 16.9 48 18 48 L 46 48 C 47.1 48 48 48.9 48 50 L 48 50 Z" style="fill: rgb(250, 250, 250);"/>
    </g>
    <g style="" transform="matrix(1.125, 0, 0, 1.2, -4, -6.400001)">
      <path class="sand" d="M 31 43 L 31 32 C 31 29.9 30 28.6 29.7 28.3 L 25.5 24.3 C 24 22.9 24 20.6 24 20.6 L 30.065 17.331 L 40 20.6 C 40 20.6 40 20.6 40 20.6 C 40 20.6 40 22.9 38.5 24.3 L 34.3 28.3 C 33.9 28.6 33 29.9 33 32 L 33 43 L 31 43 Z" style="fill: rgb(52, 73, 94);"/>
      <polygon class="sand" points="41 48 41 48 23 48 23 48 32 40" style="fill: rgb(52, 73, 94);"/>
    </g>
  </g>
</svg>